PathFileType	4	(X/Y/Z)	c:/Users/goper/Files/vsCode/490R/osim_files/C08/C08_Slow_01.trc
DataRate	CameraRate	NumFrames	NumMarkers	Units                	OrigDataRate	OrigDataStartFrame	OrigNumFrames
250.00	250.00	8	36	mm	250.0	1402	2803
                Frame#	Time	LPSIS			LASIS			LTH1			LTH2			LTH3			LTH4			LLFE			LMFE			LSH1			LSH2			LSH3			LSH4			LLMAL			LMMAL			LCAL			LMTP5			LTOE			LMTP1			RPSIS			RASIS			RTH1			RTH2			RTH3			RTH4			RLFE			RMFE			RSH1			RSH2			RSH3			RSH4			RLMAL			RMMAL			RCAL			RMTP1			RTOE			RMTP5		
		X1	Y1	Z1	X2	Y2	Z2	X3	Y3	Z3	X4	Y4	Z4	X5	Y5	Z5	X6	Y6	Z6	X7	Y7	Z7	X8	Y8	Z8	X9	Y9	Z9	X10	Y10	Z10	X11	Y11	Z11	X12	Y12	Z12	X13	Y13	Z13	X14	Y14	Z14	X15	Y15	Z15	X16	Y16	Z16	X17	Y17	Z17	X18	Y18	Z18	X19	Y19	Z19	X20	Y20	Z20	X21	Y21	Z21	X22	Y22	Z22	X23	Y23	Z23	X24	Y24	Z24	X25	Y25	Z25	X26	Y26	Z26	X27	Y27	Z27	X28	Y28	Z28	X29	Y29	Z29	X30	Y30	Z30	X31	Y31	Z31	X32	Y32	Z32	X33	Y33	Z33	X34	Y34	Z34	X35	Y35	Z35	X36	Y36	Z36

1402	5.60400	1934.88330	1035.55396	174.38789	1749.35681	998.17126	4.70116	1752.12866	728.40277	320.50354	0.00000	0.00000	0.00000	1700.78064	585.91461	294.24042	1652.14685	684.59570	288.00723	1683.41479	540.26318	286.68182	1682.24890	528.97565	157.23494	1701.58215	403.28818	294.26175	1684.58875	360.43408	296.08640	1644.78650	423.59332	298.69370	0.00000	0.00000	0.00000	1602.81689	99.19914	251.58784	1581.20471	114.47727	163.36044	1659.94995	73.43390	193.28384	1476.75134	59.29784	273.18076	1424.13123	100.70944	216.06900	1449.32715	74.66336	160.49825	1937.81799	1036.00098	115.03893	1735.18335	995.98938	247.00790	1858.66113	743.40393	-47.32762	0.00000	0.00000	0.00000	0.00000	0.00000	0.00000	1798.43823	657.79602	-4.16868	0.00000	0.00000	0.00000	0.00000	0.00000	0.00000	1996.00464	468.81937	-22.59044	2012.21619	426.71979	-27.49100	0.00000	0.00000	0.00000	0.00000	0.00000	0.00000	2169.56519	165.94978	24.94704	2139.15918	152.37924	111.89707	2233.95923	166.54037	94.31797	2052.84741	48.09775	99.75728	2030.13928	60.84329	43.55399	2083.93604	55.62044	-16.55049
1403	5.60800	1929.78174	1035.54175	175.35600	1744.60413	998.04150	5.17093	1747.28479	728.56427	320.81577	0.00000	0.00000	0.00000	1696.28491	586.03711	294.80405	1647.82776	684.72693	288.53433	1678.95178	540.28021	287.19501	1678.46826	528.83099	157.80037	1697.39075	403.46255	295.33063	1680.72217	360.52588	297.01300	1639.68542	422.94574	298.58051	1633.97461	379.14963	299.49567	1602.28979	99.26834	251.73924	1579.92493	114.06300	163.56583	1659.24609	73.87316	193.31268	1476.25183	57.64823	273.46854	1422.74060	98.46629	216.55165	1447.75378	72.14524	159.92348	1932.87708	1035.85596	115.94276	1729.78687	995.95721	247.25237	1853.46802	742.93933	-46.78272	0.00000	0.00000	0.00000	0.00000	0.00000	0.00000	1792.88525	658.24988	-5.25665	0.00000	0.00000	0.00000	0.00000	0.00000	0.00000	1989.67456	469.05530	-22.49369	2006.34668	427.13342	-27.50478	0.00000	0.00000	0.00000	0.00000	0.00000	0.00000	2166.71484	168.00752	24.73607	2136.32544	154.06949	111.53168	2230.97095	170.06136	94.25862	2052.26514	48.17200	99.80939	2029.21863	60.89785	43.71280	2082.94312	55.25941	-16.13230
1404	5.61200	1924.69421	1035.59131	176.30125	1740.07739	998.13403	6.66536	1742.42688	728.87817	321.28043	0.00000	0.00000	0.00000	1691.54822	586.28986	295.45074	1643.42627	685.04901	289.20667	1674.13770	541.51868	287.93805	1674.46216	528.94159	158.47914	1693.32263	403.75583	296.42935	1677.02771	360.70145	297.98547	1634.80383	422.40662	299.06622	0.00000	0.00000	0.00000	1601.51599	98.95932	251.92529	1578.87512	113.68533	163.76901	1658.70227	74.21696	193.32321	1475.29968	55.81742	273.41122	1421.65991	96.10902	217.27130	1446.24048	69.66535	159.36223	1927.97595	1035.73962	116.82367	1720.53662	996.66388	248.19659	1848.19727	742.48358	-46.26441	0.00000	0.00000	0.00000	0.00000	0.00000	0.00000	1786.71033	657.26294	-4.54949	0.00000	0.00000	0.00000	0.00000	0.00000	0.00000	1983.15747	469.28906	-22.40295	2000.33911	427.59732	-27.45761	0.00000	0.00000	0.00000	0.00000	0.00000	0.00000	2163.77759	170.31467	24.62322	2132.00098	157.90215	110.81098	2227.67114	173.65590	94.17360	2051.67578	48.24599	99.85432	2028.48657	61.61979	43.78467	2082.17432	55.76975	-16.07964
1405	5.61600	1919.64624	1035.68494	177.19315	1735.12988	997.94983	6.15399	1737.43896	729.36261	321.88748	0.00000	0.00000	0.00000	1686.74023	586.87122	296.19931	0.00000	0.00000	0.00000	1669.87720	541.88348	288.51556	1670.12695	529.28949	159.19243	1689.35620	404.14539	297.57712	1673.37903	360.91891	298.89163	1631.36365	422.34497	299.91544	1626.43494	378.84128	300.44724	1600.86902	98.72482	252.10696	1579.30786	113.61053	163.50546	1658.27075	74.60464	193.40897	1476.03552	55.32611	274.13922	1420.39941	94.50638	217.61577	1444.78564	67.22346	158.81442	1923.07520	1035.61230	117.69289	1715.22327	996.82147	248.40482	1842.82678	741.98853	-45.69737	0.00000	0.00000	0.00000	0.00000	0.00000	0.00000	1780.85266	657.67126	-5.67518	0.00000	0.00000	0.00000	0.00000	0.00000	0.00000	1976.41187	469.49265	-22.36629	1993.99841	427.98813	-27.51981	0.00000	0.00000	0.00000	0.00000	0.00000	0.00000	2160.60376	172.63716	24.44443	2128.09839	158.72997	110.49197	2224.10205	177.33856	94.08242	2051.01514	48.38707	99.91298	2027.96948	60.45736	44.20634	2081.92896	56.73513	-15.56086
1406	5.62000	1914.64001	1035.83398	178.06046	1730.66187	998.13324	7.69170	1732.24902	730.03552	322.55566	0.00000	0.00000	0.00000	1681.61523	587.48517	297.00284	0.00000	0.00000	0.00000	1665.52356	542.27759	289.07034	1665.83862	529.69830	159.90584	1685.44861	404.60040	298.66245	1669.86987	361.29803	299.83984	1628.03796	423.09326	300.78769	0.00000	0.00000	0.00000	1599.83557	98.07214	252.26242	1577.32910	113.29333	163.82501	1657.88904	74.90668	193.48021	1474.91870	53.74165	274.16086	1419.51404	92.34089	217.93486	1443.38892	64.81932	158.28000	1918.19873	1035.51343	118.51234	1710.11902	996.98553	248.60274	1837.27051	741.44031	-45.04848	0.00000	0.00000	0.00000	0.00000	0.00000	0.00000	1774.40955	656.62061	-4.91692	0.00000	0.00000	0.00000	0.00000	0.00000	0.00000	1969.49023	469.79282	-22.34827	1987.57666	428.48715	-27.59516	0.00000	0.00000	0.00000	0.00000	0.00000	0.00000	2157.20386	175.08507	24.30551	2124.76929	160.69386	110.21690	2220.33423	181.24008	94.00462	2050.31396	48.53940	99.94286	2027.58289	60.29329	44.20201	2080.71338	57.94501	-16.38544
1407	5.62400	1909.69592	1036.03711	178.86467	1725.72058	997.99683	7.30575	1727.03552	730.84814	323.33539	0.00000	0.00000	0.00000	1675.80432	587.88855	297.75345	0.00000	0.00000	0.00000	1660.92310	542.83942	289.70370	1661.60461	530.24908	160.63997	1681.59973	405.11838	299.69919	1666.37268	361.69141	300.69113	1623.39709	422.36255	301.14178	0.00000	0.00000	0.00000	1599.28394	97.94218	252.38176	1576.44836	112.97995	164.22350	1657.57910	75.18022	193.53989	1474.57593	52.97156	274.14719	1418.72461	91.24995	217.94388	1442.04871	62.45270	157.75879	1913.38464	1035.46167	119.26310	1705.07861	997.24738	248.83633	1831.62683	740.91370	-44.43584	0.00000	0.00000	0.00000	0.00000	0.00000	0.00000	1767.96509	656.29639	-5.06329	0.00000	0.00000	0.00000	0.00000	0.00000	0.00000	1962.29053	470.00571	-22.48102	1980.89893	428.94055	-27.75060	0.00000	0.00000	0.00000	0.00000	0.00000	0.00000	2153.58716	177.61472	24.09090	2121.22827	162.69156	109.90182	2216.26929	185.27473	93.87344	2049.48242	48.80891	99.96223	2026.53687	60.34008	44.20852	2079.73730	58.86344	-16.30564
1408	5.62800	1904.83276	1036.29333	179.61433	1721.36023	998.24268	8.86256	1721.60840	731.74603	324.16107	0.00000	0.00000	0.00000	1670.84863	588.88354	298.67099	0.00000	0.00000	0.00000	1663.90540	541.72791	289.16052	1648.39783	532.52393	161.81479	1677.92578	405.77563	300.75912	1663.59583	362.40268	301.74350	1619.59521	422.48746	301.84689	0.00000	0.00000	0.00000	1598.77991	97.85344	252.43933	1575.99829	113.09087	164.06091	1655.92859	74.36118	192.95836	1473.65576	51.98767	273.59799	1417.83521	89.40016	217.53194	1440.76465	60.12344	157.25081	1908.55652	1035.44946	119.98628	1700.12598	997.53809	249.00987	1825.80725	740.32275	-43.79792	0.00000	0.00000	0.00000	0.00000	0.00000	0.00000	0.00000	0.00000	0.00000	0.00000	0.00000	0.00000	0.00000	0.00000	0.00000	1954.86914	470.22137	-22.59903	1974.00745	429.38446	-27.90829	0.00000	0.00000	0.00000	0.00000	0.00000	0.00000	2149.70142	180.22214	23.85384	2117.54004	164.86392	109.58419	2211.90063	189.44321	93.75901	2048.58057	49.14735	99.94814	2025.54358	60.41039	44.26012	2078.42578	59.04599	-15.77464
1409	5.63200	1900.06665	1036.59619	180.31374	1716.78784	998.38354	9.47744	1716.12744	732.71893	324.95560	0.00000	0.00000	0.00000	1665.77087	589.88971	299.55911	0.00000	0.00000	0.00000	1658.98474	542.36688	289.78232	1643.93079	533.25647	162.44330	1674.25012	406.46222	301.71478	1660.57202	363.10312	302.57565	1615.50549	422.41852	302.38342	0.00000	0.00000	0.00000	1598.30066	97.80901	252.48260	1575.52783	113.04586	164.06651	1655.71509	74.51366	193.04785	1473.21069	51.56687	273.34937	1417.08911	88.38792	216.82225	1439.53528	57.83123	156.75591	1903.78284	1035.48157	120.59769	1698.75598	997.35980	248.64098	1819.94849	739.74689	-43.23257	0.00000	0.00000	0.00000	0.00000	0.00000	0.00000	1754.66052	656.34766	-6.32986	0.00000	0.00000	0.00000	0.00000	0.00000	0.00000	1947.28247	470.45114	-22.72057	1966.87097	429.86887	-28.12041	0.00000	0.00000	0.00000	0.00000	0.00000	0.00000	2145.59985	182.91476	23.61020	2113.68994	167.16612	109.31482	2207.28442	193.77600	93.57464	2047.57690	49.58792	99.92046	2024.58484	60.48268	44.32165	2077.37402	60.95052	-16.12384
